<mxfile host="Electron" agent="Mozilla/5.0 (X11; Linux x86_64) AppleWebKit/537.36 (KHTML, like Gecko) draw.io/28.2.5 Chrome/138.0.7204.251 Electron/37.6.1 Safari/537.36" version="28.2.5">
  <diagram name="第 1 页" id="A2wYnKDMZFF023bxGnZ8">
    <mxGraphModel dx="599" dy="788" grid="1" gridSize="10" guides="1" tooltips="1" connect="1" arrows="1" fold="1" page="1" pageScale="1" pageWidth="827" pageHeight="1169" math="0" shadow="0">
      <root>
        <mxCell id="0" />
        <mxCell id="1" parent="0" />
        <mxCell id="b81MjtMypsDZj9TweXg5-38" value="" style="rounded=0;whiteSpace=wrap;html=1;" parent="1" vertex="1">
          <mxGeometry x="940" y="50" width="2740" height="1140" as="geometry" />
        </mxCell>
        <mxCell id="tHCy42ypWK_uThyhraDl-21" value="ConstructorResolver" style="shape=umlLifeline;perimeter=lifelinePerimeter;whiteSpace=wrap;html=1;container=1;dropTarget=0;collapsible=0;recursiveResize=0;outlineConnect=0;portConstraint=eastwest;newEdgeStyle={&quot;curved&quot;:0,&quot;rounded&quot;:0};fontSize=20;fillColor=#dae8fc;strokeColor=#6c8ebf;strokeWidth=2;" parent="1" vertex="1">
          <mxGeometry x="1200" y="83.5" width="360" height="1086.5" as="geometry" />
        </mxCell>
        <mxCell id="tHCy42ypWK_uThyhraDl-22" value="" style="html=1;whiteSpace=wrap;fontSize=20;fillColor=#dae8fc;strokeColor=#6c8ebf;" parent="1" vertex="1">
          <mxGeometry x="1010" y="200" width="740" height="890" as="geometry" />
        </mxCell>
        <mxCell id="tHCy42ypWK_uThyhraDl-32" value="&lt;span style=&quot;text-align: left;&quot;&gt;autowireConstructor&lt;/span&gt;&lt;span&gt;()：创建实例&lt;/span&gt;" style="text;html=1;align=center;verticalAlign=middle;whiteSpace=wrap;rounded=0;fontStyle=0;fontColor=#000000;fontSize=20;" parent="1" vertex="1">
          <mxGeometry x="1221.25" y="210" width="317.5" height="30" as="geometry" />
        </mxCell>
        <mxCell id="tHCy42ypWK_uThyhraDl-40" value="&lt;span style=&quot;text-align: left;&quot;&gt;创建实例&lt;/span&gt;&lt;span style=&quot;text-align: left;&quot;&gt;方式1：obtainFromSupplier()，Suppiler方式&lt;/span&gt;" style="html=1;whiteSpace=wrap;fontSize=20;fillColor=#dae8fc;strokeColor=#6c8ebf;" parent="1" vertex="1">
          <mxGeometry x="1020" y="370" width="720" height="44" as="geometry" />
        </mxCell>
        <mxCell id="tHCy42ypWK_uThyhraDl-41" value="" style="html=1;whiteSpace=wrap;fontSize=20;fillColor=#dae8fc;strokeColor=#6c8ebf;strokeWidth=2;" parent="1" vertex="1">
          <mxGeometry x="1020" y="730" width="720" height="310" as="geometry" />
        </mxCell>
        <mxCell id="tHCy42ypWK_uThyhraDl-50" value="&lt;span&gt;未解析过构造函数&lt;/span&gt;" style="text;html=1;align=center;verticalAlign=middle;whiteSpace=wrap;rounded=0;fontColor=#000000;fontStyle=0;fontSize=20;" parent="1" vertex="1">
          <mxGeometry x="1210" y="740" width="310" height="30" as="geometry" />
        </mxCell>
        <mxCell id="XXb4EB46vbzF-yNc4gj--1" value="解析Bean的Class类型" style="html=1;whiteSpace=wrap;fontSize=20;fillColor=#dae8fc;strokeColor=#6c8ebf;strokeWidth=1;" parent="1" vertex="1">
          <mxGeometry x="1020" y="250" width="720" height="40" as="geometry" />
        </mxCell>
        <mxCell id="XXb4EB46vbzF-yNc4gj--14" value="AutowiredAnnotationBeanPostProcessor" style="shape=umlLifeline;perimeter=lifelinePerimeter;whiteSpace=wrap;html=1;container=1;dropTarget=0;collapsible=0;recursiveResize=0;outlineConnect=0;portConstraint=eastwest;newEdgeStyle={&quot;curved&quot;:0,&quot;rounded&quot;:0};fontSize=20;fillColor=#dae8fc;strokeColor=#6c8ebf;strokeWidth=2;" parent="1" vertex="1">
          <mxGeometry x="2285" y="81.5" width="380" height="1090.5" as="geometry" />
        </mxCell>
        <mxCell id="b81MjtMypsDZj9TweXg5-2" value="访问权限检查" style="html=1;whiteSpace=wrap;fontSize=20;fillColor=#dae8fc;strokeColor=#6c8ebf;strokeWidth=1;" parent="1" vertex="1">
          <mxGeometry x="1020" y="310" width="720" height="40" as="geometry" />
        </mxCell>
        <mxCell id="b81MjtMypsDZj9TweXg5-3" value="&lt;span style=&quot;text-align: left;&quot;&gt;创建实例&lt;/span&gt;&lt;span style=&quot;text-align: left;&quot;&gt;方式2：instantiateUsingFactoryMethod()，工厂方法，&lt;font style=&quot;color: rgb(255, 0, 0);&quot;&gt;@Bean用该方式&lt;/font&gt;&lt;/span&gt;" style="html=1;whiteSpace=wrap;fontSize=20;fillColor=#dae8fc;strokeColor=#6c8ebf;" parent="1" vertex="1">
          <mxGeometry x="1020" y="432" width="720" height="40" as="geometry" />
        </mxCell>
        <mxCell id="b81MjtMypsDZj9TweXg5-8" value="" style="html=1;whiteSpace=wrap;fontSize=20;fillColor=#dae8fc;strokeColor=#6c8ebf;strokeWidth=2;" parent="1" vertex="1">
          <mxGeometry x="1020" y="550" width="720" height="170" as="geometry" />
        </mxCell>
        <mxCell id="b81MjtMypsDZj9TweXg5-10" value="确认构造函数是否已解析" style="html=1;whiteSpace=wrap;fontSize=20;fillColor=#dae8fc;strokeColor=#6c8ebf;strokeWidth=1;" parent="1" vertex="1">
          <mxGeometry x="1020" y="492" width="720" height="40" as="geometry" />
        </mxCell>
        <mxCell id="b81MjtMypsDZj9TweXg5-12" value="&lt;span&gt;已解析过构造函数&lt;/span&gt;" style="text;html=1;align=center;verticalAlign=middle;whiteSpace=wrap;rounded=0;fontColor=#000000;fontStyle=0;fontSize=20;" parent="1" vertex="1">
          <mxGeometry x="1210" y="560" width="310" height="30" as="geometry" />
        </mxCell>
        <mxCell id="b81MjtMypsDZj9TweXg5-16" value="&lt;span style=&quot;text-align: left;&quot;&gt;创建实例&lt;/span&gt;&lt;span style=&quot;text-align: left;&quot;&gt;方式3：autowireConstructor()：构造函数自动注入&lt;/span&gt;" style="html=1;whiteSpace=wrap;fontSize=20;fillColor=#dae8fc;strokeColor=#6c8ebf;" parent="1" vertex="1">
          <mxGeometry x="1030" y="600" width="700" height="40" as="geometry" />
        </mxCell>
        <mxCell id="b81MjtMypsDZj9TweXg5-17" value="&lt;span style=&quot;text-align: left;&quot;&gt;创建实例&lt;/span&gt;&lt;span style=&quot;text-align: left;&quot;&gt;方式4：instantiateBean()：无参构造函数&lt;/span&gt;" style="html=1;whiteSpace=wrap;fontSize=20;fillColor=#dae8fc;strokeColor=#6c8ebf;" parent="1" vertex="1">
          <mxGeometry x="1030" y="660" width="700" height="40" as="geometry" />
        </mxCell>
        <mxCell id="b81MjtMypsDZj9TweXg5-18" value="&lt;div style=&quot;text-align: left;&quot;&gt;&lt;span style=&quot;background-color: transparent;&quot;&gt;确定候选构造函数determineConstructorsFromBeanPostProcessors&lt;/span&gt;&lt;/div&gt;" style="html=1;whiteSpace=wrap;fontSize=20;fillColor=#dae8fc;strokeColor=#6c8ebf;" parent="1" vertex="1">
          <mxGeometry x="1030" y="777" width="700" height="40" as="geometry" />
        </mxCell>
        <mxCell id="b81MjtMypsDZj9TweXg5-19" value="&lt;span style=&quot;text-align: left;&quot;&gt;创建实例&lt;/span&gt;&lt;span style=&quot;text-align: left;&quot;&gt;方式5：autowireConstructor()：&lt;/span&gt;&lt;span style=&quot;text-align: left;&quot;&gt;候选构造器，构造器含@Autowired&lt;/span&gt;" style="html=1;whiteSpace=wrap;fontSize=20;fillColor=#dae8fc;strokeColor=#6c8ebf;" parent="1" vertex="1">
          <mxGeometry x="1030" y="837" width="700" height="40" as="geometry" />
        </mxCell>
        <mxCell id="b81MjtMypsDZj9TweXg5-20" value="" style="endArrow=classic;html=1;rounded=0;exitX=1;exitY=0.5;exitDx=0;exitDy=0;entryX=0;entryY=0.5;entryDx=0;entryDy=0;" parent="1" source="b81MjtMypsDZj9TweXg5-18" target="XXb4EB46vbzF-yNc4gj--8" edge="1">
          <mxGeometry width="50" height="50" relative="1" as="geometry">
            <mxPoint x="1900" y="890" as="sourcePoint" />
            <mxPoint x="1950" y="840" as="targetPoint" />
          </mxGeometry>
        </mxCell>
        <mxCell id="b81MjtMypsDZj9TweXg5-21" value="&lt;span style=&quot;text-align: left;&quot;&gt;创建实例&lt;/span&gt;&lt;span style=&quot;text-align: left;&quot;&gt;方式6：autowireConstructor()：首&lt;/span&gt;&lt;span style=&quot;text-align: left;&quot;&gt;选构造器&lt;/span&gt;" style="html=1;whiteSpace=wrap;fontSize=20;fillColor=#dae8fc;strokeColor=#6c8ebf;" parent="1" vertex="1">
          <mxGeometry x="1030" y="899" width="700" height="40" as="geometry" />
        </mxCell>
        <mxCell id="b81MjtMypsDZj9TweXg5-22" value="&lt;span style=&quot;text-align: left;&quot;&gt;创建实例&lt;/span&gt;&lt;span style=&quot;text-align: left;&quot;&gt;方式7：&lt;/span&gt;&lt;span style=&quot;text-align: left;&quot;&gt;instantiateBean()：无参构造函数&lt;/span&gt;" style="html=1;whiteSpace=wrap;fontSize=20;fillColor=#dae8fc;strokeColor=#6c8ebf;" parent="1" vertex="1">
          <mxGeometry x="1030" y="962" width="700" height="40" as="geometry" />
        </mxCell>
        <mxCell id="b81MjtMypsDZj9TweXg5-23" value="SimpleInstantiationStrategy" style="shape=umlLifeline;perimeter=lifelinePerimeter;whiteSpace=wrap;html=1;container=1;dropTarget=0;collapsible=0;recursiveResize=0;outlineConnect=0;portConstraint=eastwest;newEdgeStyle={&quot;curved&quot;:0,&quot;rounded&quot;:0};fontSize=20;fillColor=#dae8fc;strokeColor=#6c8ebf;strokeWidth=2;" parent="1" vertex="1">
          <mxGeometry x="3240" y="79.5" width="380" height="1090.5" as="geometry" />
        </mxCell>
        <mxCell id="b81MjtMypsDZj9TweXg5-24" value="instantiate()" style="html=1;whiteSpace=wrap;fontSize=20;fillColor=#dae8fc;strokeColor=#6c8ebf;strokeWidth=1;" parent="1" vertex="1">
          <mxGeometry x="3265" y="961" width="330" height="40" as="geometry" />
        </mxCell>
        <mxCell id="b81MjtMypsDZj9TweXg5-25" value="" style="endArrow=classic;html=1;rounded=0;exitX=1;exitY=0.5;exitDx=0;exitDy=0;entryX=0;entryY=0.5;entryDx=0;entryDy=0;" parent="1" source="b81MjtMypsDZj9TweXg5-22" target="b81MjtMypsDZj9TweXg5-24" edge="1">
          <mxGeometry width="50" height="50" relative="1" as="geometry">
            <mxPoint x="1770" y="1060" as="sourcePoint" />
            <mxPoint x="1820" y="1010" as="targetPoint" />
          </mxGeometry>
        </mxCell>
        <mxCell id="b81MjtMypsDZj9TweXg5-26" value="instantiate()" style="html=1;whiteSpace=wrap;fontSize=20;fillColor=#dae8fc;strokeColor=#6c8ebf;strokeWidth=1;" parent="1" vertex="1">
          <mxGeometry x="3265" y="660" width="330" height="40" as="geometry" />
        </mxCell>
        <mxCell id="b81MjtMypsDZj9TweXg5-27" value="" style="endArrow=classic;html=1;rounded=0;exitX=1;exitY=0.5;exitDx=0;exitDy=0;entryX=0;entryY=0.5;entryDx=0;entryDy=0;" parent="1" source="b81MjtMypsDZj9TweXg5-17" target="b81MjtMypsDZj9TweXg5-26" edge="1">
          <mxGeometry width="50" height="50" relative="1" as="geometry">
            <mxPoint x="2010" y="700" as="sourcePoint" />
            <mxPoint x="2060" y="650" as="targetPoint" />
          </mxGeometry>
        </mxCell>
        <mxCell id="b81MjtMypsDZj9TweXg5-32" value="" style="endArrow=classic;html=1;rounded=0;exitX=1;exitY=0.5;exitDx=0;exitDy=0;entryX=0;entryY=0.5;entryDx=0;entryDy=0;" parent="1" source="b81MjtMypsDZj9TweXg5-16" edge="1">
          <mxGeometry width="50" height="50" relative="1" as="geometry">
            <mxPoint x="1980" y="570" as="sourcePoint" />
            <mxPoint x="2815" y="620" as="targetPoint" />
          </mxGeometry>
        </mxCell>
        <mxCell id="b81MjtMypsDZj9TweXg5-35" value="" style="endArrow=classic;html=1;rounded=0;exitX=1;exitY=0.5;exitDx=0;exitDy=0;entryX=0;entryY=0.5;entryDx=0;entryDy=0;" parent="1" source="b81MjtMypsDZj9TweXg5-21" edge="1">
          <mxGeometry width="50" height="50" relative="1" as="geometry">
            <mxPoint x="1980" y="1130" as="sourcePoint" />
            <mxPoint x="2815" y="919" as="targetPoint" />
          </mxGeometry>
        </mxCell>
        <mxCell id="b81MjtMypsDZj9TweXg5-36" value="" style="endArrow=classic;html=1;rounded=0;exitX=1;exitY=0.5;exitDx=0;exitDy=0;entryX=0;entryY=0.5;entryDx=0;entryDy=0;" parent="1" source="b81MjtMypsDZj9TweXg5-19" edge="1">
          <mxGeometry width="50" height="50" relative="1" as="geometry">
            <mxPoint x="1970" y="1050" as="sourcePoint" />
            <mxPoint x="2815" y="857" as="targetPoint" />
          </mxGeometry>
        </mxCell>
        <mxCell id="XXb4EB46vbzF-yNc4gj--8" value="determineCandidateConstructors()" style="html=1;whiteSpace=wrap;fontSize=20;fillColor=#dae8fc;strokeColor=#6c8ebf;strokeWidth=1;" parent="1" vertex="1">
          <mxGeometry x="2310" y="775" width="330" height="40" as="geometry" />
        </mxCell>
        <mxCell id="b81MjtMypsDZj9TweXg5-39" value="instantiate()" style="html=1;whiteSpace=wrap;fontSize=20;fillColor=#dae8fc;strokeColor=#6c8ebf;strokeWidth=1;" parent="1" vertex="1">
          <mxGeometry x="3265" y="600" width="330" height="40" as="geometry" />
        </mxCell>
        <mxCell id="b81MjtMypsDZj9TweXg5-40" value="instantiate()" style="html=1;whiteSpace=wrap;fontSize=20;fillColor=#dae8fc;strokeColor=#6c8ebf;strokeWidth=1;" parent="1" vertex="1">
          <mxGeometry x="3265" y="837" width="330" height="40" as="geometry" />
        </mxCell>
        <mxCell id="b81MjtMypsDZj9TweXg5-41" value="instantiate()" style="html=1;whiteSpace=wrap;fontSize=20;fillColor=#dae8fc;strokeColor=#6c8ebf;strokeWidth=1;" parent="1" vertex="1">
          <mxGeometry x="3265" y="899" width="330" height="40" as="geometry" />
        </mxCell>
        <mxCell id="b81MjtMypsDZj9TweXg5-42" value="" style="endArrow=classic;html=1;rounded=0;exitX=1;exitY=0.5;exitDx=0;exitDy=0;entryX=0;entryY=0.5;entryDx=0;entryDy=0;" parent="1" target="b81MjtMypsDZj9TweXg5-39" edge="1">
          <mxGeometry width="50" height="50" relative="1" as="geometry">
            <mxPoint x="3145" y="620" as="sourcePoint" />
            <mxPoint x="3200" y="540" as="targetPoint" />
          </mxGeometry>
        </mxCell>
        <mxCell id="b81MjtMypsDZj9TweXg5-43" value="" style="endArrow=classic;html=1;rounded=0;exitX=1;exitY=0.5;exitDx=0;exitDy=0;entryX=0;entryY=0.5;entryDx=0;entryDy=0;" parent="1" target="b81MjtMypsDZj9TweXg5-40" edge="1">
          <mxGeometry width="50" height="50" relative="1" as="geometry">
            <mxPoint x="3145" y="857" as="sourcePoint" />
            <mxPoint x="3320" y="770" as="targetPoint" />
          </mxGeometry>
        </mxCell>
        <mxCell id="b81MjtMypsDZj9TweXg5-44" value="" style="endArrow=classic;html=1;rounded=0;exitX=1;exitY=0.5;exitDx=0;exitDy=0;entryX=0;entryY=0.5;entryDx=0;entryDy=0;" parent="1" target="b81MjtMypsDZj9TweXg5-41" edge="1">
          <mxGeometry width="50" height="50" relative="1" as="geometry">
            <mxPoint x="3145" y="919" as="sourcePoint" />
            <mxPoint x="3210" y="790" as="targetPoint" />
          </mxGeometry>
        </mxCell>
      </root>
    </mxGraphModel>
  </diagram>
</mxfile>
